<?xml version="1.0" encoding="utf-8"?>
<!-- Generator: Adobe Illustrator 18.0.0, SVG Export Plug-In . SVG Version: 6.00 Build 0)  -->
<!DOCTYPE svg PUBLIC "-//W3C//DTD SVG 1.1//EN" "http://www.w3.org/Graphics/SVG/1.1/DTD/svg11.dtd">
<svg version="1.1" id="Layer_1" xmlns="http://www.w3.org/2000/svg" xmlns:xlink="http://www.w3.org/1999/xlink" x="0px" y="0px"
	 viewBox="0 0 1161 197" enable-background="new 0 0 1161 197" xml:space="preserve">
<rect x="-18.7" y="-161.7" fill="none" width="1159.4" height="196.1"/>
<path fill="#161413" d="M606.2,0.9c54.1,0,98,43.9,98,98c0,54.1-43.9,98-98,98c-54.1,0-98-43.9-98-98
	C508.2,44.8,552.1,0.9,606.2,0.9z"/>
<path fill="#E20010" d="M606.2,4.4c52.2,0,94.6,42.3,94.6,94.6c0,52.2-42.3,94.6-94.6,94.6c-52.2,0-94.6-42.3-94.6-94.6
	C511.7,46.8,554,4.4,606.2,4.4z"/>
<path fill="#161413" d="M606.7,23.3c57.8,0.5,75.9,27.1,48.3,75.6c-12.8,22.4-17.7,36.7-5.1,46.8c7.8,6.3,17.8,5.2,30.3-1.2
	c-13.7,22.8-35.6,29-56.9,12.6c-17.7-13.6-8.9-33-2.3-49.5c13.6-34,26.1-69.6-14.4-70.8c-40.5,1.3-28.1,36.8-14.4,70.8
	c6.6,16.6,15.4,35.9-2.3,49.5c-21.3,16.4-43.2,10.2-56.9-12.6c12.6,6.4,22.5,7.5,30.3,1.2c12.6-10.2,7.7-24.4-5.1-46.8
	C530.8,50.4,548.9,23.8,606.7,23.3z"/>
<path fill="#FFFFFF" d="M647.1,107.6l-0.9,1.9l-0.9,1.8l-0.8,1.8l-0.8,1.8l-0.7,1.7l-0.6,1.7l-0.6,1.7l-0.5,1.6l-0.4,1.6l-0.4,1.6
	l-0.3,1.6L640,128l-0.1,1.5l0,1.5l0,1.5l0.1,1.5l0.2,1.4l0.3,1.4l0.4,1.4l0.5,1.4l0.6,1.3l0.7,1.3l0.9,1.2l1,1.2l1.1,1.2l1.2,1.1
	l1.2,1.1l0.8,0.7l0.9,0.6l0.9,0.6l0.9,0.5l0.9,0.5l0.9,0.4l0.9,0.4l1,0.3l1,0.3l1,0.2l1,0.2l1,0.1l1,0.1l1,0h1l1,0l1.1-0.1l1.1-0.1
	l1.1-0.2l1.1-0.2l1.1-0.2l1.1-0.3l1.1-0.3l1-0.3l-0.9,1.1l-1.4,1.5l-1.5,1.4l-1.5,1.3l-1.5,1.2l-1.5,1.1l-1.6,1l-1.6,0.9l-1.6,0.8
	l-1.6,0.7l-1.6,0.6l-1.7,0.5l-1.7,0.3l-1.7,0.2l-1.7,0.1l-1.7,0l-1.8-0.1l-1.8-0.2l-1.8-0.3l-1.8-0.4l-1.8-0.5l-1.8-0.6l-1.9-0.8
	l-1.9-0.9l-1.9-1l-1.9-1.1l-1.9-1.3l-1.9-1.4l-1.5-1.2l-1.3-1.2l-1.2-1.2l-1-1.2l-0.9-1.2l-0.8-1.3l-0.7-1.3l-0.6-1.3l-0.5-1.3
	l-0.4-1.3l-0.3-1.4l-0.2-1.4l-0.1-1.4l0-1.4l0-1.5l0.1-1.5l0.2-1.5l0.2-1.5l0.3-1.5l0.3-1.5l0.4-1.6l0.4-1.6l0.5-1.6l0.5-1.6
	l0.6-1.6l0.6-1.6l0.6-1.6l0.6-1.6l0.6-1.6l0.6-1.6l0.6-1.6l0.6-1.6l1.3-3.2l1.3-3.2l1.2-3.2l1.2-3.2l1.2-3.2l1.1-3.2l1-3.2l1-3.1
	l0.9-3.1l0.8-3.1l0.7-3l0.6-3l0.5-2.9l0.3-2.8l0.2-2.8l0-2.7l-0.1-2.6l-0.3-2.6l-0.5-2.5l-0.7-2.4l-1-2.3l-1.2-2.2l-1.5-2l-1.7-1.8
	l-2-1.7l-2.3-1.5l-2.5-1.3l-2.8-1.1l-3-0.8l-3.3-0.6l-3.5-0.4l-3.9-0.2l-3.9,0.2l-3.5,0.4l-3.3,0.6l-3,0.8l-2.8,1.1l-2.5,1.3
	l-2.2,1.5l-2,1.7l-1.7,1.8l-1.5,2l-1.2,2.2l-1,2.3l-0.7,2.4l-0.5,2.5l-0.3,2.6l-0.1,2.6l0,2.7l0.2,2.8l0.3,2.8l0.5,2.9l0.6,3l0.7,3
	l0.8,3.1l0.9,3.1l1,3.1l1,3.2l1.1,3.2l1.2,3.2l1.2,3.2l1.2,3.2l1.3,3.2l1.3,3.2l0.6,1.6l0.6,1.6l0.6,1.6l0.6,1.6l0.6,1.6l0.6,1.6
	l0.6,1.6l0.6,1.6l0.5,1.6l0.5,1.6l0.4,1.6l0.4,1.6l0.3,1.5l0.3,1.5l0.2,1.5l0.2,1.5l0.1,1.5l0,1.5l0,1.4l-0.1,1.4l-0.2,1.4l-0.3,1.4
	l-0.4,1.3l-0.5,1.3l-0.6,1.3l-0.7,1.3l-0.8,1.3l-0.9,1.2l-1,1.2l-1.2,1.2l-1.3,1.2l-1.5,1.2l-1.9,1.4l-1.9,1.3l-1.9,1.1l-1.9,1
	l-1.9,0.9l-1.9,0.8l-1.8,0.6l-1.8,0.5l-1.8,0.4l-1.8,0.3l-1.8,0.2l-1.8,0.1l-1.7,0l-1.7-0.1l-1.7-0.2l-1.7-0.3l-1.7-0.5l-1.6-0.6
	l-1.6-0.7l-1.6-0.8l-1.6-0.9l-1.6-1l-1.5-1.1l-1.5-1.2l-1.5-1.3l-1.5-1.4l-1.4-1.5l-0.9-1.1l1,0.3l1.1,0.3l1.1,0.3l1.1,0.2l1.1,0.2
	l1.1,0.2l1.1,0.1l1.1,0.1l1,0h1l1,0l1-0.1l1-0.1l1-0.2l1-0.2l1-0.3l1-0.3l0.9-0.4l0.9-0.4l0.9-0.5l0.9-0.5l0.9-0.6l0.9-0.6l0.8-0.7
	l1.2-1.1l1.2-1.1l1.1-1.2l1-1.2l0.9-1.2l0.8-1.3l0.6-1.3l0.5-1.4l0.4-1.4l0.3-1.4l0.2-1.4l0.1-1.5l0-1.5l0-1.5l-0.1-1.5l-0.2-1.6
	l-0.3-1.6l-0.4-1.6l-0.4-1.6l-0.5-1.7l-0.6-1.7l-0.6-1.7l-0.7-1.7l-0.8-1.8l-0.8-1.8l-0.9-1.8l-0.9-1.9l-1-1.9l-1-2l-1.1-2l-1.1-2.1
	l-1.2-2.1l-2.4-4.4l-2.1-4.3l-1.9-4.1l-1.6-4l-1.3-3.8l-1.1-3.7l-0.8-3.5l-0.6-3.4l-0.3-3.2l-0.1-3.1l0.2-2.9l0.4-2.8l0.6-2.6
	l0.8-2.5l1.1-2.4l1.3-2.2l1.5-2.1l1.8-2l2-1.9l2.2-1.8l2.5-1.6l2.7-1.5l3-1.4l3.2-1.3l3.5-1.1l3.7-1l4-0.8l4.2-0.7l4.5-0.6l4.7-0.4
	l5-0.3l5.2-0.1l5.2,0.1l5,0.3l4.7,0.4l4.5,0.6l4.2,0.7l4,0.8l3.7,1l3.5,1.1l3.2,1.3l3,1.4l2.7,1.5L653,37l2.2,1.8l2,1.9l1.8,2
	l1.5,2.1l1.3,2.2l1.1,2.3l0.8,2.5l0.6,2.6l0.4,2.8l0.2,2.9l-0.1,3.1l-0.3,3.2l-0.6,3.4l-0.8,3.5L662,77l-1.3,3.8l-1.6,4l-1.9,4.1
	l-2.1,4.3l-2.4,4.4l-1.2,2.1l-1.1,2.1l-1.1,2l-1,2L647.1,107.6z"/>
<path fill="#FFFFFF" d="M19.9,123.6c-3.8-1-5.1-4.2-5.3-8.3c0-21.8,0-43.6,0-65.4c-4.6,1.5-9.2,3-13.8,4.4
	c-0.1,21.9-0.1,43.8-0.2,65.7c2,7.6,5.4,10,9.2,10.2C15.4,130.6,18.3,127.5,19.9,123.6z"/>
<path fill="#FFFFFF" d="M43.7,72.3H30.5c0,12.8,0,25.6,0,38.4c0.5,11.3,6.4,17.5,18.9,17.6c7.5,0.1,12.4-2,16.3-5.2
	c0,1.4,0,2.8-0.1,4.2l13.2,0.1l-0.1-55h-13c0,12.7,0,25.3,0,38c-6.1,10.5-20.7,8.4-21.9,0.1L43.7,72.3z"/>
<path fill="#FFFFFF" d="M112.7,123.6c-3.8-1-5.1-4.2-5.3-8.3c0-21.8,0-43.6,0-65.4c-4.6,1.5-9.2,3-13.8,4.4
	c-0.1,21.9-0.1,43.8-0.2,65.7c2,7.6,5.4,10,9.2,10.2C108.1,130.6,111,127.5,112.7,123.6z"/>
<path fill="#FFFFFF" d="M135.8,72.3h-13.2c0,12.8,0,25.6,0,38.4c0.5,11.3,6.4,17.5,18.9,17.6c7.5,0.1,12.4-2,16.3-5.2
	c0,1.4,0,2.8-0.1,4.2l13.2,0.1l-0.1-55h-13c0,12.7,0,25.3,0,38c-6.1,10.5-20.7,8.4-21.9,0.1L135.8,72.3z"/>
<path fill="#FFFFFF" d="M205.1,123.6c-3.8-1-5.1-4.2-5.3-8.3c0-21.8,0-43.6,0-65.4c-4.6,1.5-9.2,3-13.8,4.4
	c-0.1,21.9-0.1,43.8-0.2,65.7c2,7.6,5.4,10,9.2,10.2C200.6,130.6,203.5,127.5,205.1,123.6z"/>
<path fill="#FFFFFF" d="M225.9,94.3c3-15.6,23.4-15.8,26.4,0C243.5,94.3,234.7,94.3,225.9,94.3z M225.6,104.2c13,0,26,0,39,0
	c0.5-2.4,1.1-4.9,1-7.8c-0.1-13.6-8.7-25-26.5-25c-20,0-27.4,15.3-27.6,28.8c-0.3,17.7,8.7,27.7,27.9,28.2
	c8.4,0.2,15.4-1.5,20.2-5.7c-1.9-3.3-3.8-6.6-5.7-9.9c-4,2.9-8.5,4.6-13.3,4.5C231.2,117.1,226.2,112.6,225.6,104.2z"/>
<path fill="#FFFFFF" d="M274.8,72.3l-0.2,55.1H289c-0.1-13.1-0.1-26.3-0.2-39.4c3.2-7.4,15.9-6.4,17.8,0.2v39.2H320
	c-0.1-13.1-0.1-26.1-0.2-39.2c4.8-8.7,17.4-6.8,18.6,3.2l-0.2,36.2h13.6c0-13.8,0-27.6,0-41.4c-5.7-18.3-23.7-18-35.2-8.8
	c-7.6-7.9-22.6-8.1-29.4-0.6c-0.9-1.5-1.9-2.9-2.8-4.4L274.8,72.3z"/>
<path fill="#FFFFFF" d="M423.9,72.3l-0.2,55.1h14.4c-0.1-13.1-0.1-26.3-0.2-39.4c3.2-7.4,18.9-6.4,20.8,0.2v39.2h13.4
	c-0.1-13.1-0.1-26-0.2-39.1c-0.6-14.2-20.6-23.8-35.6-11.6c-0.9-1.5-1.9-2.9-2.8-4.4L423.9,72.3z"/>
<path fill="#FFFFFF" d="M916.9,123.6c-3.8-1-5.1-4.2-5.3-8.3c0-21.8,0-43.6,0-65.4c-4.6,1.5-9.2,3-13.8,4.4
	c-0.1,21.9-0.1,43.8-0.2,65.7c2,7.6,5.4,10,9.2,10.2C912.4,130.6,915.3,127.5,916.9,123.6z"/>
<path fill="#FFFFFF" d="M937.7,94.3c3-15.6,23.4-15.8,26.4,0C955.3,94.3,946.5,94.3,937.7,94.3z M937.4,104.2c13,0,26,0,39,0
	c0.5-2.4,1.1-4.9,1-7.8c-0.1-13.6-8.7-25-26.5-25c-20,0-27.4,15.3-27.6,28.8c-0.3,17.7,8.7,27.7,27.9,28.2
	c8.4,0.2,15.4-1.5,20.2-5.7c-1.9-3.3-3.8-6.6-5.7-9.9c-4,2.9-8.5,4.6-13.3,4.5C943,117.1,938,112.6,937.4,104.2z"/>
<path fill="#FFFFFF" d="M741.4,85c-0.9-3.2-1-6.6-1.9-9.9c2.6-1.9,7.9-3.3,15.6-4.1c16,0.4,23.7,7.1,24.1,20.1c0,7,0,14,0,21
	c0.1,6.4,1.7,10.1,5.2,11.4c-3.9,8-14.4,5.3-16.7-1.1c-3.4,4.4-8.1,5.7-15,5.6c-11.5-0.2-19.2-3.7-19.3-16.5
	c-0.1-12,5.8-22,32.4-20.1C765.3,83.4,757.9,79.8,741.4,85z M761,101.4c-9.1-0.2-14.2,3-14.2,9.2c0,5.5,3.8,7.4,8.7,7.3
	c8.1,0,11.6-5.5,10.6-16.1C764.4,101.7,762.7,101.5,761,101.4z"/>
<path fill="#FFFFFF" d="M808,56.3l-13.4,5.2l0.2,10.7h-6.2v10.9l6-0.1c0.1,10.5,0.1,21.1,0.2,31.6c0.8,7.6,3.6,13.2,17.8,13.6
	c4,0.1,8.1-0.2,12.1-1.1c0-4,0-8.1,0-12.1c-2.3,1.2-4.9,2.2-8.3,2.3c-5,0.1-7.7-2.5-8-7.5l0.1-26.4h14.2l0.1-11l-14.8-0.1L808,56.3z
	"/>
<path fill="#FFFFFF" d="M834.3,51.8l-0.2,75.5h14.4c-0.1-13.1-0.1-26.3-0.2-39.4c3.2-7.4,18.9-6.4,20.8,0.2v39.2h13.4
	c-0.1-13.1-0.1-26-0.2-39.1c-0.6-14.2-20.1-23.2-34.3-12.4l-0.2-26.4L834.3,51.8z"/>
<path fill="#FFFFFF" d="M1002.1,56.3l-13.4,5.2l0.2,10.7h-6.2v10.9l6-0.1c0.1,10.5,0.1,21.1,0.2,31.6c0.8,7.6,3.6,13.2,17.8,13.6
	c4,0.1,8.1-0.2,12.1-1.1c0-4,0-8.1,0-12.1c-2.3,1.2-4.9,2.2-8.2,2.3c-5,0.1-7.7-2.5-8-7.5l0.1-26.4h14.2l0.1-11l-14.8-0.1
	L1002.1,56.3z"/>
<path fill="#FFFFFF" d="M1116.9,85c-0.9-3.2-1-6.6-1.9-9.9c2.6-1.9,7.9-3.3,15.7-4.1c16,0.4,23.7,7.1,24.1,20.1c0,7,0,14,0,21
	c0.1,6.4,1.7,10.1,5.2,11.4c-3.9,8-14.4,5.3-16.7-1.1c-3.4,4.4-8.1,5.7-15,5.6c-11.5-0.2-19.2-3.7-19.3-16.5
	c-0.1-12,5.8-22,32.4-20.1C1140.9,83.4,1133.5,79.8,1116.9,85z M1136.6,101.4c-9.1-0.2-14.2,3-14.2,9.2c0,5.5,3.8,7.4,8.7,7.3
	c8.1,0,11.6-5.5,10.6-16.1C1140,101.7,1138.3,101.5,1136.6,101.4z"/>
<path fill="#FFFFFF" d="M1069.7,104.2c-1.2-20.5,14.8-26.7,27.7-17.4l5.1-9.7c-0.3-0.2-6.6-5.5-19.3-5.7
	c-20-0.3-27.4,15.3-27.6,28.8c-0.3,17.7,8.7,27.7,27.9,28.2c8.4,0.2,15.4-1.5,20.2-5.7c-1.9-3.3-3.8-6.6-5.7-9.9
	c-4,2.9-8.5,4.6-13.3,4.5C1075.3,117.1,1070.3,112.6,1069.7,104.2z"/>
<path fill="#FFFFFF" d="M1024.7,72.3l20.2,0.1l0.2,55h-13.2l-0.1-44h-7V72.3z"/>
<path fill="#FFFFFF" d="M1038.5,51.2c4.2,0,7.7,3.4,7.7,7.7c0,4.2-3.4,7.7-7.7,7.7c-4.2,0-7.7-3.4-7.7-7.7
	C1030.9,54.6,1034.3,51.2,1038.5,51.2z"/>
<path fill="#FFFFFF" d="M414,99.6c-0.1,19.5-12.4,30.3-31.3,27.4c-6.8-1-12.1-4.4-15.8-10.2c-6.2-9.5-6.1-25.3,0.2-34.5
	c6.2-9.1,16.9-12.7,29-9.7c9.6,2.3,16.3,10.2,17.5,20.9C413.9,95.5,413.9,97.6,414,99.6z M401.3,99.4c-0.2-0.1-0.4-0.1-0.5-0.2
	c-0.2-2.2-0.3-4.4-0.8-6.6c-1.5-6.7-5.4-10.3-11.4-10.4c-5.7-0.2-10.7,3.4-11.7,10c-0.8,5.5-0.5,11.5,0.5,17
	c0.8,4.4,4.4,7.1,9.2,7.6c5.1,0.5,9.3-1.2,11.5-5.8C399.7,107.4,400.3,103.3,401.3,99.4z"/>
</svg>
